<svg width="1109" height="416" viewBox="0 0 1109 416" fill="none" xmlns="http://www.w3.org/2000/svg">
<g filter="url(#filter0_d_3_4)">
<path d="M0 15C0 6.71574 6.71573 0 15 0H1061.06C1068.69 0 1074.87 6.18044 1074.87 13.8044V47.6415C1074.87 56.0568 1077.15 64.3152 1081.46 71.5411L1083.89 75.6173C1086.62 80.1908 1088.82 85.0614 1090.44 90.1343L1090.77 91.1515C1094.17 101.785 1094.17 113.215 1090.77 123.848V123.848C1088.93 129.603 1086.54 135.168 1083.64 140.469L1079.81 147.471C1076.57 153.395 1074.87 160.04 1074.87 166.793V385C1074.87 393.284 1068.15 400 1059.87 400H15C6.71576 400 0 393.284 0 385V15Z" fill="#171B2D"/>
</g>
<defs>
<filter id="filter0_d_3_4" x="0" y="0" width="1108.32" height="416" filterUnits="userSpaceOnUse" color-interpolation-filters="sRGB">
<feFlood flood-opacity="0" result="BackgroundImageFix"/>
<feColorMatrix in="SourceAlpha" type="matrix" values="0 0 0 0 0 0 0 0 0 0 0 0 0 0 0 0 0 0 127 0" result="hardAlpha"/>
<feOffset dx="8" dy="9"/>
<feGaussianBlur stdDeviation="3.5"/>
<feComposite in2="hardAlpha" operator="out"/>
<feColorMatrix type="matrix" values="0 0 0 0 0.0875 0 0 0 0 0.0875 0 0 0 0 0.0875 0 0 0 0.43 0"/>
<feBlend mode="normal" in2="BackgroundImageFix" result="effect1_dropShadow_3_4"/>
<feBlend mode="normal" in="SourceGraphic" in2="effect1_dropShadow_3_4" result="shape"/>
</filter>
</defs>
</svg>
